<?xml version="1.0" encoding="utf-8"?>
<!-- Generator: Adobe Illustrator 21.0.0, SVG Export Plug-In . SVG Version: 6.00 Build 0)  -->
<svg version="1.1" id="Layer_1" xmlns="http://www.w3.org/2000/svg" xmlns:xlink="http://www.w3.org/1999/xlink" x="0px" y="0px"
	 viewBox="0 0 300 200" style="enable-background:new 0 0 300 200;" xml:space="preserve">
<style type="text/css">
	.st0{fill:#FFFFFF;}
</style>
<title>Artboard 1</title>
<g>
	<polygon points="254.2,40.4 53.2,40.4 53.2,50 244.2,50 244.2,152.5 254.2,152.5 	"/>
	<polygon class="st0" points="53.2,50 48.3,50 48.3,157 244.2,157 244.2,152.5 53.2,152.5 	"/>
</g>
<path d="M241.7,52.6v101.8H50.9V52.6H241.7 M246.8,47.4H45.8v112.1h201.1L246.8,47.4L246.8,47.4z"/>
<g>
	<path d="M149.9,137.1h2.6v-5.4c-0.8,0.2-1.7,0.4-2.5,0.5L149.9,137.1z"/>
	<path d="M160.9,81.2c2.5,3.1,4,7,4.1,11h2.6c0.2-4.2-1.2-8.3-3.8-11.5c-2.7-3.1-6.5-5.1-10.5-5.5v-7.9h-2.6v8.1
		C154.6,76.1,158.3,78.1,160.9,81.2z"/>
	<path d="M162.6,103.9c-1.6-1.4-3.3-2.6-5.2-3.5c-2-1-4.2-2-6.4-3c-1.8-0.7-3.5-1.7-5-3c-1.1-1.2-1.6-2.7-1.5-4.3
		c-0.1-1.1,0.2-2.2,0.7-3.1c-0.8,0.1-1.6,0.5-2.2,1.1c-0.7,1-1.1,2.1-1,3.3c-0.1,1.2,0.3,2.5,1.2,3.4c1.3,1.2,2.9,2.1,4.5,2.8
		c2.3,1,4.5,2,6.5,3c2,1,3.8,2.3,5.5,3.7c1.6,1.4,2.8,3.1,3.8,5c1,2.2,1.4,4.5,1.4,6.9c0.1,4.2-1.4,8.2-4.4,11.1
		c0,0-0.1,0.1-0.1,0.1c1.1-0.6,2.1-1.4,3-2.3c2.7-2.7,4.1-6.4,4-10.2c0.1-2.2-0.4-4.3-1.2-6.3C165.2,106.7,164,105.2,162.6,103.9z"
		/>
	<path d="M141.5,118.8c1.1,1.2,2.7,1.8,4.3,1.7c0.6,0,1.1-0.1,1.7-0.3c-1.2-0.3-2.2-1-3.1-1.9c-1.2-1.5-1.9-3.6-1.9-6.4h-2.6v1.3
		C139.9,115.8,140.4,117.6,141.5,118.8z"/>
	<path class="st0" d="M146.6,129.6c-5.3-0.6-9.4-2.4-12.3-5.5c-2.3-2.5-3.7-5.8-4.1-9.6h-2.6c0.1,3.7,1.4,7.3,3.9,10.1
		c2.6,2.8,6.5,4.5,11.4,5.1l1.2,0.1l0,7.3h3.2v0h-0.7V129.6z"/>
	<path class="st0" d="M147.4,69.9h-2.7v5.6c0.9-0.2,1.8-0.3,2.7-0.4V69.9z"/>
	<path class="st0" d="M153.7,86.4c-1-1.4-2.5-2.1-4.2-2c-0.6,0-1.3,0.1-1.9,0.3c1.3,0.4,2.4,1.2,3.2,2.3c1,1.6,1.6,3.4,1.7,5.3h2.7
		C155.3,90.2,154.8,88.1,153.7,86.4z"/>
	<path class="st0" d="M155,115c0.1-1.6-0.4-3.3-1.4-4.5c-1.4-1.4-3.1-2.5-5-3.1c-2.4-1-4.6-2-6.6-3c-1.9-0.9-3.7-2.1-5.2-3.5
		c-1.4-1.3-2.6-2.8-3.4-4.6c-0.8-2-1.2-4.1-1.2-6.3c-0.1-3.8,1.4-7.4,4.1-10.1c-1,0.6-2,1.3-2.9,2.1c-2.5,2.4-3.9,5.8-3.8,9.3
		c0,2,0.3,3.9,1.1,5.7c0.7,1.6,1.8,3,3.1,4.2c1.5,1.3,3.2,2.4,5,3.3c2,1,4.2,2,6.6,2.9c2.1,0.7,4,1.9,5.5,3.5
		c1.2,1.5,1.8,3.4,1.7,5.4c0.1,1.5-0.3,2.9-1.1,4.1c0.8-0.2,1.6-0.7,2.2-1.3C154.5,117.9,155,116.5,155,115z"/>
	<path d="M163.7,93.5h-12.4c0.1-2.1-0.4-4.1-1.5-5.9c-0.9-1.3-2.3-2-3.8-2c-0.1,0.1-0.2,0.2-0.3,0.3c-0.3,0.3-0.5,0.7-0.7,1.1
		c0.2,0,0.4,0,0.5,0c1.2-0.1,2.4,0.5,3.1,1.5c0.9,1.5,1.3,3.3,1.2,5.1v1.3h15v-1.3c0-0.4,0-0.9,0-1.3h-1.3
		C163.7,92.6,163.7,93.1,163.7,93.5z"/>
	<path d="M152.5,130.3v1.4c2.9-0.7,5.6-2.2,7.8-4.3c-1.5,0.9-3.2,1.5-5.1,1.9C154.3,129.7,153.4,130,152.5,130.3z"/>
	<path d="M149.4,120.5c0.1-0.1,0.1-0.1,0.2-0.2c1-1.1,1.5-2.6,1.5-4.1c0.1-1.6-0.4-3.3-1.4-4.5c-1.4-1.4-3.1-2.5-5-3.1
		c-2.4-1-4.6-2-6.6-3c-1.9-0.9-3.7-2.1-5.2-3.5c-1.4-1.3-2.6-2.8-3.4-4.6c-0.8-2-1.2-4.1-1.2-6.3c-0.1-3.8,1.4-7.6,4.1-10.2
		c2.5-2.2,5.5-3.7,8.7-4.4c0.8-0.4,1.6-0.6,2.4-0.9v-7.1h3.9v-1.3h-5.2v7.9c-4,0.4-7.8,2.2-10.8,4.9c-3,2.9-4.7,6.9-4.6,11.1
		c-0.1,2.3,0.4,4.7,1.3,6.8c0.9,1.9,2.1,3.6,3.7,5c1.7,1.5,3.5,2.7,5.5,3.7c2,1,4.3,2,6.7,3c1.7,0.6,3.2,1.5,4.5,2.8
		c0.8,1.1,1.2,2.4,1.1,3.7c0.1,1.2-0.3,2.3-1.1,3.2c-0.4,0.4-0.8,0.7-1.3,0.8C148,120.5,148.7,120.6,149.4,120.5z"/>
	<path d="M148.6,138.3h-5.8V131c-5.3-0.6-9.4-2.4-12.3-5.5c-2.8-3.1-4.3-7.2-4.3-12.2h3.9c0-0.4,0-0.8,0-1.3H125v1.3
		c0,5.4,1.5,9.8,4.6,13.1c2.8,3.1,6.8,5,11.9,5.8v7.6h8.4l0-2.6h-1.3V138.3z"/>
	<path d="M143.5,75.8c-0.8,0.2-1.6,0.5-2.4,0.9c0.8-0.2,1.6-0.3,2.4-0.3V75.8z"/>
	<path d="M149.4,68.6v7.9c4.1,0.4,7.8,2.4,10.5,5.5c2.4,2.9,3.7,6.5,3.8,10.2h1.3c-0.1-4-1.6-7.9-4.1-11c-2.6-3.1-6.3-5.1-10.2-5.8
		v-8.1h-3.2v1.3H149.4z"/>
	<path d="M164.8,116.1c0.1-2.4-0.4-4.7-1.4-6.9c-0.9-1.9-2.2-3.6-3.8-5c-1.7-1.5-3.5-2.7-5.5-3.7c-2-1-4.2-2-6.5-3
		c-1.7-0.6-3.2-1.6-4.5-2.8c-0.8-0.9-1.3-2.2-1.2-3.4c-0.1-1.2,0.3-2.4,1-3.3c0.6-0.6,1.4-1,2.2-1.1c0.2-0.4,0.4-0.8,0.7-1.1
		c0.1-0.1,0.2-0.2,0.3-0.3c-0.1,0-0.2,0-0.4,0c-1.4-0.1-2.8,0.5-3.8,1.5c-1,1.2-1.4,2.7-1.3,4.2c-0.1,1.6,0.5,3.1,1.5,4.3
		c1.4,1.3,3.1,2.3,5,3c2.3,1,4.4,2,6.4,3c1.9,1,3.6,2.1,5.2,3.5c1.4,1.3,2.6,2.9,3.5,4.6c0.9,2,1.3,4.2,1.2,6.3
		c0.1,3.8-1.3,7.5-4,10.2c-1.2,1.2-2.7,2.2-4.3,3c1.9-0.4,3.6-1,5.1-1.9c0,0,0.1-0.1,0.1-0.1C163.3,124.3,164.9,120.3,164.8,116.1z"
		/>
	<path d="M138.6,113.3c0,2.8,0.6,4.9,1.9,6.4c1.3,1.5,3.3,2.3,5.3,2.2c1.4,0.1,2.7-0.4,3.7-1.3c-0.7,0-1.4-0.1-2-0.2
		c-0.5,0.2-1.1,0.3-1.7,0.3c-1.6,0.1-3.2-0.5-4.3-1.7c-1-1.2-1.5-3.1-1.5-5.5V112h-9.8c0,0.4,0,0.9,0,1.3H138.6z"/>
	<path d="M148.6,130.9v6.1h1.3l0-4.9c0.9-0.1,1.7-0.3,2.5-0.5v-1.4C151.3,130.6,150,130.8,148.6,130.9z"/>
	<path d="M147.3,137.1h-3.2l0-7.3l-1.2-0.1c-5-0.5-8.8-2.2-11.4-5.1c-2.5-2.8-3.8-6.4-3.9-10.1h2.6c0-0.4-0.1-0.8-0.1-1.3h-3.9
		c0,5.1,1.4,9.1,4.3,12.2c2.8,3.1,6.9,4.9,12.3,5.5v7.3h5.8v-1.3L147.3,137.1L147.3,137.1z"/>
	<path d="M151.3,120.3c0.8-1.2,1.2-2.7,1.1-4.1c0.1-1.9-0.5-3.9-1.7-5.4c-1.5-1.6-3.4-2.7-5.5-3.5c-2.4-0.9-4.6-1.9-6.6-2.9
		c-1.8-0.9-3.5-2-5-3.3c-1.3-1.2-2.3-2.6-3.1-4.2c-0.7-1.8-1.1-3.8-1.1-5.7c-0.1-3.5,1.2-6.9,3.8-9.3c0.9-0.8,1.8-1.5,2.9-2.1
		c0,0,0.1-0.1,0.1-0.1c1.4-1.3,3.1-2.4,4.8-3.1c-3.2,0.6-6.3,2.1-8.7,4.4c-2.8,2.7-4.3,6.4-4.1,10.2c-0.1,2.2,0.3,4.3,1.2,6.3
		c0.8,1.7,1.9,3.3,3.4,4.6c1.6,1.4,3.3,2.6,5.2,3.5c2,1,4.2,2,6.6,3c1.9,0.7,3.6,1.7,5,3.1c1,1.3,1.5,2.9,1.4,4.5
		c0.1,1.5-0.4,3-1.5,4.1c-0.1,0.1-0.1,0.1-0.2,0.2c0.1,0,0.1,0,0.2,0C150.2,120.6,150.7,120.5,151.3,120.3z"/>
	<path d="M149.9,87.6c1.1,1.8,1.6,3.8,1.5,5.9h12.4c0-0.4,0-0.8,0-1.3h-8.5c0,0,0,0,0,0h-2.7c-0.1-1.9-0.6-3.7-1.7-5.3
		c-0.8-1.1-1.9-1.9-3.2-2.3c-0.6,0.2-1.2,0.5-1.6,1C147.6,85.6,149,86.4,149.9,87.6z"/>
	<path d="M144.7,69.9h2.7v-1.3h-3.9v7.1c0.4-0.1,0.8-0.2,1.2-0.3V69.9z"/>
	<path d="M152.5,130.3c0.9-0.3,1.8-0.6,2.7-1c-0.9,0.2-1.7,0.3-2.7,0.4V130.3z"/>
	<path d="M137.4,114.6c0.1,2.1,0.8,4.2,2.1,5.9c1.6,1.8,3.9,2.8,6.2,2.6c1.8,0.1,3.6-0.6,4.8-1.9c0.3-0.3,0.5-0.6,0.7-0.9
		c-0.5,0.2-1.1,0.2-1.7,0.2c-0.1,0-0.1,0-0.2,0c-1,0.9-2.3,1.4-3.7,1.3c-2,0.1-3.9-0.7-5.3-2.2c-1.2-1.5-1.9-3.6-1.9-6.4h-8.4
		c0,0.4,0.1,0.9,0.1,1.3H137.4z"/>
	<path d="M136.1,79.9c2.3-1.3,4.8-2.1,7.4-2.3l1.2-0.1v-2.1c-0.4,0.1-0.8,0.2-1.2,0.3v0.6c-0.8,0-1.6,0.2-2.4,0.3
		c-1.8,0.8-3.4,1.8-4.8,3.1C136.2,79.8,136.2,79.9,136.1,79.9z"/>
	<path d="M148,69.9v7.7l1.1,0.2c3.8,0.4,7.3,2.2,9.8,5.1c2.2,2.7,3.4,5.9,3.5,9.4h-7.1c0,0,0,0,0,0h8.5c-0.1-3.7-1.5-7.3-3.8-10.2
		c-2.7-3.1-6.5-5-10.5-5.5v-7.9h-2v1.3H148z"/>
	<path d="M145.6,84.3c-1.8-0.1-3.5,0.7-4.7,2c-1.1,1.4-1.7,3.2-1.7,5c-0.1,1.9,0.6,3.8,1.9,5.2c1.6,1.5,3.4,2.6,5.4,3.3
		c2.2,1,4.4,2,6.4,3c1.8,0.9,3.5,2,5,3.3c1.3,1.2,2.4,2.6,3.1,4.2c0.8,1.8,1.2,3.8,1.1,5.8c0.2,3.5-1.2,6.9-3.6,9.3
		c-2.4,2.4-5.8,3.8-10,4.2l-1.2,0.1v7.2h1.3v-6.1c1.4-0.1,2.7-0.4,3.9-0.7v-0.6c0.9-0.1,1.8-0.2,2.7-0.4c1.6-0.7,3.1-1.7,4.3-3
		c2.7-2.7,4.1-6.4,4-10.2c0.1-2.2-0.4-4.3-1.2-6.3c-0.8-1.8-2-3.3-3.5-4.6c-1.6-1.4-3.3-2.6-5.2-3.5c-2-1-4.2-2-6.4-3
		c-1.8-0.7-3.5-1.7-5-3c-1.1-1.2-1.6-2.7-1.5-4.3c-0.1-1.5,0.4-3,1.3-4.2c1-1,2.3-1.6,3.8-1.5c0.1,0,0.2,0,0.4,0
		c0.5-0.4,1-0.8,1.6-1C147,84.4,146.3,84.3,145.6,84.3z"/>
</g>
</svg>
