<?xml version="1.0" encoding="utf-8"?>
<!-- Generator: Adobe Illustrator 21.0.0, SVG Export Plug-In . SVG Version: 6.00 Build 0)  -->
<svg version="1.1" id="Layer_1" xmlns="http://www.w3.org/2000/svg" xmlns:xlink="http://www.w3.org/1999/xlink" x="0px" y="0px"
	 viewBox="0 0 100 125" style="enable-background:new 0 0 100 125;" xml:space="preserve">
<style type="text/css">
	.st0{fill:none;}
</style>
<rect x="5" y="5" class="st0" width="90" height="90"/>
<path d="M72,7.6C66.1,5.9,58.3,5,50,5c-8.3,0-16.1,0.9-22,2.6c-6.4,1.8-9.8,4.3-9.8,7.2c0,0.2,0,0.5,0.1,0.7l8.1,72.1
	c0,1.2,0.8,2.4,2.3,3.3c1.2,0.8,3,1.5,5.2,2.2c4.4,1.2,10.1,1.9,16.3,1.9c6.1,0,11.9-0.7,16.3-1.9c2.2-0.6,3.9-1.3,5.2-2.2
	c1.5-1,2.3-2.1,2.3-3.3l8.1-72.1c0-0.2,0.1-0.5,0.1-0.7C81.8,11.9,78.4,9.4,72,7.6z M71.4,87.3c0,0,0,0.1,0,0.1
	c0,0.7-1.2,2.1-5.8,3.4c-4.2,1.2-9.7,1.8-15.6,1.8c-5.9,0-11.5-0.6-15.6-1.8c-4.6-1.3-5.8-2.7-5.8-3.4c0,0,0-0.1,0-0.1l-0.4-3.4
	c4,2.7,13.1,4.1,21.8,4.1c8.7,0,17.8-1.4,21.8-4.1L71.4,87.3z M72,81.9c-0.9,1-2.9,2-5.8,2.8C61.9,86,56.1,86.6,50,86.6
	S38.1,86,33.8,84.7c-2.9-0.8-4.9-1.8-5.8-2.8L27.2,75c1.3,0.9,3.1,1.6,5.4,2.3c4.6,1.3,10.8,2,17.3,2c6.5,0,12.7-0.7,17.3-2
	c2.4-0.7,4.2-1.4,5.5-2.3L72,81.9z M30.7,53.3c0.1-0.4,0.5-0.6,0.8-0.5c2.9,0.8,6.4,1.4,10.2,1.8c0.4,0,0.7,0.4,0.6,0.7
	c0,0.4-0.3,0.6-0.7,0.6c0,0,0,0-0.1,0c-3.9-0.4-7.5-1-10.4-1.8C30.8,54,30.6,53.6,30.7,53.3z M48.5,55.6c0-0.4,0.3-0.7,0.7-0.7
	c0,0,0,0,0,0c0.3,0,0.6,0,0.9,0c7,0,13.5-0.7,18.4-2.1c0.4-0.1,0.7,0.1,0.8,0.5c0.1,0.4-0.1,0.7-0.5,0.8c-5,1.4-11.7,2.1-18.8,2.1
	c-0.3,0-0.6,0-0.9,0C48.8,56.3,48.5,56,48.5,55.6z M76,46.4c-1.2-1.2-3.5-2.4-6.7-3.3c-5.1-1.5-11.9-2.3-19.2-2.3
	c-7.3,0-14.2,0.8-19.2,2.3c-3.3,1-5.6,2.1-6.8,3.4l-3.2-28.8c1.5,1.3,4,2.4,7.5,3.4c5.8,1.6,13.5,2.5,21.8,2.5
	c8.2,0,15.9-0.9,21.8-2.5c3.4-1,5.9-2.1,7.5-3.4L76,46.4z M79.5,15C79.5,15.1,79.5,15.1,79.5,15c-0.4,1.4-2.6,3.2-8.1,4.7
	c-5.7,1.6-13.3,2.5-21.4,2.5c-8.1,0-15.7-0.9-21.4-2.5c-5.5-1.5-7.7-3.3-8.1-4.6c0,0,0-0.1,0-0.1c0-0.1,0-0.2,0-0.3
	c0-1.3,2.1-3.3,8.2-5C34.3,8.2,41.9,7.3,50,7.3s15.7,0.9,21.4,2.5c6,1.7,8.2,3.7,8.2,5C79.6,14.9,79.5,14.9,79.5,15z"/>
</svg>
